<svg xmlns="http://www.w3.org/2000/svg" viewBox="0 0 64 64" role="img" aria-label="RedaStream favicon">
  <defs>
    <linearGradient id="fBase" x1="50%" y1="0%" x2="50%" y2="100%">
      <stop offset="0%" stop-color="#03101f" />
      <stop offset="100%" stop-color="#072236" />
    </linearGradient>
    <linearGradient id="fText" x1="0%" y1="50%" x2="100%" y2="50%">
      <stop offset="0%" stop-color="#57f1ff" />
      <stop offset="100%" stop-color="#8efaff" />
    </linearGradient>
    <filter id="fGlow" x="-40%" y="-40%" width="180%" height="180%">
      <feGaussianBlur stdDeviation="8" result="blur" />
      <feColorMatrix in="blur" type="matrix" values="0 0 0 0 0.05  0 0 0 0 0.7  0 0 0 0 1  0 0 0 0.5 0" />
      <feBlend in="SourceGraphic" mode="screen" />
    </filter>
  </defs>
  <rect x="6" y="6" width="52" height="52" rx="16" fill="url(#fBase)" stroke="#1acbff" stroke-opacity=".45" stroke-width="1.6" filter="url(#fGlow)" />
  <path fill="url(#fText)" d="M21 46V18h19.1c8.4 0 13.3 3.8 13.3 10.5 0 5.2-2.6 8.9-7.5 10.6L52 46h-9l-7.1-12.5H30.4V46H21Zm9.4-18.5h8.5c3 0 4.7-1.2 4.7-3.6 0-2.3-1.8-3.4-4.7-3.4h-8.5Z" />
  <circle cx="46" cy="19.6" r="6" fill="#082035" />
  <path fill="url(#fText)" d="M46 15.8c.7 0 1.2.5 1.2 1.2v1.8h1.8c.7 0 1.2.5 1.2 1.2s-.5 1.2-1.2 1.2h-1.8v1.9c0 .7-.5 1.2-1.2 1.2s-1.2-.5-1.2-1.2V21h-1.9c-.7 0-1.2-.5-1.2-1.2s.5-1.2 1.2-1.2H44v-1.8c0-.7.5-1.2 1.2-1.2Z" />
</svg>
