<svg xmlns="http://www.w3.org/2000/svg" viewBox="0 0 128 128" role="img" aria-labelledby="markTitle markDesc">
  <title id="markTitle">RedaStream Plus symbol</title>
  <desc id="markDesc">Rounded square with glowing cyan R plus icon</desc>
  <defs>
    <linearGradient id="markBase" x1="50%" y1="0%" x2="50%" y2="100%">
      <stop offset="0%" stop-color="#02101e" />
      <stop offset="100%" stop-color="#071d32" />
    </linearGradient>
    <linearGradient id="markText" x1="0%" y1="50%" x2="100%" y2="50%">
      <stop offset="0%" stop-color="#56f0ff" />
      <stop offset="100%" stop-color="#8bf8ff" />
    </linearGradient>
    <filter id="markGlow" x="-40%" y="-40%" width="180%" height="180%">
      <feGaussianBlur stdDeviation="14" result="blur" />
      <feColorMatrix in="blur" type="matrix" values="0 0 0 0 0.05  0 0 0 0 0.7  0 0 0 0 1  0 0 0 0.5 0" />
      <feBlend in="SourceGraphic" mode="screen" />
    </filter>
  </defs>

  <rect x="14" y="14" width="100" height="100" rx="30" fill="url(#markBase)" stroke="#1fc6ff" stroke-opacity="0.45" stroke-width="2" filter="url(#markGlow)" />
  <path fill="url(#markText)" d="M46 90V38h22.4c10 0 15.9 4.5 15.9 12.3 0 6.1-3.2 10.4-8.9 12.1l9.4 27.6H74.6L66.8 65.3H58V90H46Zm12-24.6h11.2c4 0 6.2-1.5 6.2-4.4 0-2.8-2.2-4.3-6.2-4.3H58Z" />
  <circle cx="84.5" cy="40.5" r="10" fill="#071d32" />
  <path fill="url(#markText)" d="M84.5 34.5c1 0 1.8.8 1.8 1.8v3h3c1 0 1.8.8 1.8 1.8s-.8 1.8-1.8 1.8h-3v3c0 1-.8 1.8-1.8 1.8s-1.8-.8-1.8-1.8v-3h-3c-1 0-1.8-.8-1.8-1.8s.8-1.8 1.8-1.8h3v-3c0-1 .8-1.8 1.8-1.8Z" />
</svg>
