<svg xmlns="http://www.w3.org/2000/svg" viewBox="0 0 64 64" role="img" aria-labelledby="title desc">
  <title id="title">RedaStream brand mark</title>
  <desc id="desc">Rounded gradient square with stylised R and plus badge</desc>
  <defs>
    <linearGradient id="rs-gradient" x1="12%" y1="85%" x2="88%" y2="15%">
      <stop offset="0%" stop-color="#0ea5e9" />
      <stop offset="45%" stop-color="#6366f1" />
      <stop offset="100%" stop-color="#9333ea" />
    </linearGradient>
    <linearGradient id="rs-highlight" x1="0%" y1="100%" x2="100%" y2="0%">
      <stop offset="0%" stop-color="#38bdf8" />
      <stop offset="100%" stop-color="#c084fc" />
    </linearGradient>
  </defs>
  <rect x="3.5" y="3.5" width="57" height="57" rx="17" fill="url(#rs-gradient)" />
  <path fill="#020617" fill-opacity="0.82" d="M18 47V17h16.3c8 0 13.2 4.1 13.2 10.9 0 4.5-2.2 8-6.1 9.9l9.4 15.2h-9.1l-8.4-13.2H26.6V47H18zm8.6-19.3h6.6c3.1 0 4.9-1.4 4.9-3.9 0-2.5-1.7-3.8-4.9-3.8h-6.6v7.7z" />
  <circle cx="46.5" cy="18.5" r="7.2" fill="url(#rs-highlight)" />
  <path fill="#020617" d="M46.5 15.2c.7 0 1.2.5 1.2 1.2v2.0h2c.7 0 1.2.5 1.2 1.2s-.5 1.2-1.2 1.2h-2V23c0 .7-.5 1.2-1.2 1.2s-1.2-.5-1.2-1.2v-2.2h-2c-.7 0-1.2-.5-1.2-1.2s.5-1.2 1.2-1.2h2v-2c0-.7.5-1.2 1.2-1.2z" />
</svg>
