<svg xmlns="http://www.w3.org/2000/svg" viewBox="0 0 320 96" role="img" aria-labelledby="title desc">
  <title id="title">RedaStream logo</title>
  <desc id="desc">Gradient brand mark with RedaStream plus wordmark</desc>
  <defs>
    <linearGradient id="logo-gradient" x1="15%" y1="90%" x2="85%" y2="10%">
      <stop offset="0%" stop-color="#0ea5e9" />
      <stop offset="45%" stop-color="#6366f1" />
      <stop offset="100%" stop-color="#9333ea" />
    </linearGradient>
    <linearGradient id="badge" x1="0%" y1="100%" x2="100%" y2="0%">
      <stop offset="0%" stop-color="#38bdf8" />
      <stop offset="100%" stop-color="#c084fc" />
    </linearGradient>
  </defs>
  <g transform="translate(12 12)">
    <rect x="0" y="0" width="72" height="72" rx="22" fill="url(#logo-gradient)" />
    <path fill="#020617" fill-opacity="0.82" d="M15 66V10h19.8c9.7 0 16 5 16 13.5 0 5.5-2.6 9.8-7.3 12.1l11.2 17.9H43.3l-10-15.4h-4.5V66H15zm13.8-23.4h8c3.8 0 6-1.6 6-4.7 0-3-2.1-4.4-6-4.4h-8v9.1z" />
    <circle cx="55" cy="17" r="8.5" fill="url(#badge)" />
    <path fill="#020617" d="M55 12.7c.8 0 1.4.6 1.4 1.4v2.3h2.3c.8 0 1.4.6 1.4 1.4s-.6 1.4-1.4 1.4h-2.3v2.4c0 .8-.6 1.4-1.4 1.4s-1.4-.6-1.4-1.4v-2.4h-2.4c-.8 0-1.4-.6-1.4-1.4s.6-1.4 1.4-1.4h2.4v-2.3c0-.8.6-1.4 1.4-1.4z" />
  </g>
  <g transform="translate(108 28)" fill="#e2e8f0">
    <text font-family="'Inter', 'Segoe UI', 'Helvetica Neue', Arial, sans-serif" font-size="34" font-weight="700" letter-spacing="0.03em">RedaStream</text>
    <text x="232" y="4" font-family="'Inter', 'Segoe UI', 'Helvetica Neue', Arial, sans-serif" font-size="22" font-weight="600" fill="#38bdf8">+</text>
    <text x="2" y="40" font-family="'Inter', 'Segoe UI', 'Helvetica Neue', Arial, sans-serif" font-size="12" letter-spacing="0.4em" fill="#64748b">CINEMATIC UNIVERSE</text>
  </g>
</svg>
